<?xml version="1.0" standalone="no"?><!DOCTYPE svg PUBLIC "-//W3C//DTD SVG 1.1//EN" "http://www.w3.org/Graphics/SVG/1.1/DTD/svg11.dtd"><svg t="1686143296394" class="icon" viewBox="0 0 1185 1024" version="1.1" xmlns="http://www.w3.org/2000/svg" p-id="13425" xmlns:xlink="http://www.w3.org/1999/xlink" width="231.4453125" height="200"><path d="M128 725.333333h768V213.333333H128v512zM938.666667 128a42.666667 42.666667 0 0 1 42.666666 42.666667v597.333333a42.666667 42.666667 0 0 1-42.666666 42.666667H85.333333a42.666667 42.666667 0 0 1-42.666666-42.666667V170.666667a42.666667 42.666667 0 0 1 42.666666-42.666667h853.333334zM256 938.666667v-85.333334h512v85.333334H256z" fill="#1768E4" p-id="13426"></path><path d="M368.298667 661.162667a42.666667 42.666667 0 0 0 78.421333-10.794667l55.68-222.72 56.106667 123.306667a42.666667 42.666667 0 0 0 76.970666 1.450666l25.856-51.669333 4.48 9.002667a42.666667 42.666667 0 0 0 38.186667 23.594666H810.666667v-85.333333h-80.298667l-30.890667-61.738667a42.666667 42.666667 0 0 0-76.330666 0l-23.978667 48-69.674667-153.216a42.666667 42.666667 0 0 0-80.213333 7.253334l-59.605333 238.336-32.64-57.130667A42.666667 42.666667 0 0 0 320 448H213.333333v85.333333h81.92l73.045334 127.829334z" fill="#8BB3F1" p-id="13427"></path></svg>