<?xml version="1.0" standalone="no"?><!DOCTYPE svg PUBLIC "-//W3C//DTD SVG 1.1//EN" "http://www.w3.org/Graphics/SVG/1.1/DTD/svg11.dtd"><svg t="1685498689365" class="icon" viewBox="0 0 1024 1024" version="1.1" xmlns="http://www.w3.org/2000/svg" p-id="5199" xmlns:xlink="http://www.w3.org/1999/xlink" width="200" height="200"><path d="M512.000931 116.363636c282.763636 0 512 234.449455 512 523.636364A530.850909 530.850909 0 0 1 964.934749 884.363636h-77.195636a460.753455 460.753455 0 0 0 69.469091-244.363636c0-251.485091-199.330909-455.330909-445.207273-455.330909S66.793658 388.538182 66.793658 640c0 89.925818 25.483636 173.777455 69.469091 244.363636H59.067113A530.850909 530.850909 0 0 1 0.000931 640C0.000931 350.813091 229.237295 116.363636 512.000931 116.363636z" fill="#999999" p-id="5200"></path><path d="M638.046022 488.727273L674.910022 526.661818 473.461295 721.454545 372.364567 613.818182l38.632728-36.119273 64.279272 68.421818zM743.84384 735.348364l102.260364 59.042909-23.272728 40.308363-102.260363-59.042909 23.272727-40.308363z m-463.685818 0l23.272727 40.308363-102.260364 59.042909-23.272727-40.308363 102.260364-59.042909z m485.003636-73.216l115.060364 26.554181-10.472727 45.358546-115.060364-26.577455 10.472727-45.335272z m-506.321454 0l10.472727 45.335272-115.060364 26.577455-10.472727-45.358546 115.060364-26.554181z m622.871272-84.526546l3.258182 46.452364-117.806545 8.215273-3.258182-46.429091 117.806545-8.238546z m-739.421091 0l117.806546 8.238546-3.258182 46.429091-117.806545-8.215273 3.258181-46.452364z m708.142546-106.589091l16.686545 43.450182-110.242909 42.309818-16.686545-43.450182 110.242909-42.309818z m-676.864 0l110.242909 42.309818-16.686545 43.450182-110.24291-42.309818 16.686546-43.450182z m614.632727-93.253818l29.300364 36.189091-91.787637 74.309818-29.300363-36.165818 91.787636-74.333091z m-552.401454 0l91.787636 74.333091-29.300364 36.165818-91.787636-74.309818 29.300364-36.189091z m466.432-70.237091l38.586181 26.018909-66.048 97.908364-38.586181-26.018909 66.048-97.908364z m-380.462546 0l66.048 97.908364-38.586182 26.018909-66.048-97.908364 38.586182-26.018909z m277.597091-41.821091l44.497455 13.591273-34.513455 112.942545-44.520727-13.591272 34.536727-112.942546z m-174.731636 0l34.536727 112.942546-44.520727 13.591272-34.513455-112.942545 44.497455-13.591273zM535.273658 256v118.109091h-46.545454V256h46.545454z" fill="#00A2FF" p-id="5201"></path></svg>