<?xml version="1.0" standalone="no"?><!DOCTYPE svg PUBLIC "-//W3C//DTD SVG 1.1//EN" "http://www.w3.org/Graphics/SVG/1.1/DTD/svg11.dtd"><svg t="1686142290426" class="icon" viewBox="0 0 1024 1024" version="1.1" xmlns="http://www.w3.org/2000/svg" p-id="11667" xmlns:xlink="http://www.w3.org/1999/xlink" width="200" height="200"><path d="M330.112 490.208h85.12v274.88h-85.12v-274.88zM475.808 490.208h141.184c30.752 0 53.792 7.328 69.056 21.952 15.328 14.624 23.008 35.392 23.008 62.432 0 27.744-8.384 49.44-25.024 65.056-16.672 15.584-42.144 23.392-76.416 23.392h-46.496v102.016h-85.312v-274.848z m85.312 117.152h20.8c16.384 0 27.872-2.816 34.496-8.544a27.52 27.52 0 0 0 9.952-21.856 30.464 30.464 0 0 0-8.64-21.952c-5.792-6.016-16.608-8.992-32.48-8.992h-24.192l0.064 61.344z" fill="#A3B0FE" p-id="11668"></path><path d="M570.752 357.248H800L570.752 128z" fill="#F0F4FF" p-id="11669"></path><path d="M800 389.248h-229.248a32 32 0 0 1-32-32V128a32 32 0 0 1 54.624-22.624l229.248 229.248A32 32 0 0 1 800 389.248z m-197.248-64h120l-120-120v120z" fill="#A3B0FE" p-id="11670"></path><path d="M800 928H224a32 32 0 0 1-32-32V128a32 32 0 0 1 32-32h346.752c8.512 0 16.64 3.36 22.624 9.376l229.248 229.248a32 32 0 0 1 9.376 22.624V896a32 32 0 0 1-32 32zM256 864h512V370.496L557.504 160H256v704z" fill="#A3B0FE" p-id="11671"></path></svg>