<?xml version="1.0" standalone="no"?><!DOCTYPE svg PUBLIC "-//W3C//DTD SVG 1.1//EN" "http://www.w3.org/Graphics/SVG/1.1/DTD/svg11.dtd"><svg t="1686141353299" class="icon" viewBox="0 0 1024 1024" version="1.1" xmlns="http://www.w3.org/2000/svg" p-id="2412" xmlns:xlink="http://www.w3.org/1999/xlink" width="200" height="200"><path d="M155.82208 327.5776l-1.29024 0.64512V692.736L511.95904 880.4352V505.344z" fill="#FFFFFF" p-id="2413"></path><path d="M868.42368 327.90528L511.6416 140.1856 169.3184 320.2048l-13.824 7.39328 356.1472 177.74592 4.17792-1.92512L869.376 328.5504l-0.96256-0.64512zM514.8672 503.3984l-4.17792 3.20512 4.17792-3.20512z" fill="#FFF1B8" p-id="2414"></path><path d="M939.78624 293.50912a61.71648 61.71648 0 0 0-25.3952-26.6752L538.96192 68.18816a58.81856 58.81856 0 0 0-54.64064 0L109.2096 265.54368a53.0432 53.0432 0 0 0-15.43168 13.824 59.46368 59.46368 0 0 0-9.63584 12.53376 55.28576 55.28576 0 0 0-7.0656 26.68544v385.71008a59.14624 59.14624 0 0 0 32.13312 52.0704l374.784 197.35552a64.28672 64.28672 0 0 0 26.68544 7.72096h4.5056a61.71648 61.71648 0 0 0 22.81472-6.11328l374.784-198.31808a59.78112 59.78112 0 0 0 32.14336-52.71552V318.58688a57.21088 57.21088 0 0 0-5.14048-25.07776zM869.376 328.5504L515.81952 503.3984l-4.17792 2.2528v375.0912L153.88672 692.736V328.22272l13.824-7.39328 343.93088-180.6336 356.78208 187.6992 0.96256 0.65536z" fill="#FAAD14" p-id="2415"></path></svg>